<mxfile host="Electron" modified="2024-02-28T13:44:54.827Z" agent="Mozilla/5.0 (Windows NT 10.0; Win64; x64) AppleWebKit/537.36 (KHTML, like Gecko) draw.io/23.1.5 Chrome/120.0.6099.109 Electron/28.1.0 Safari/537.36" etag="cUA2y_2t4P4z8lO6fTY3" version="23.1.5" type="device">
  <diagram id="R2lEEEUBdFMjLlhIrx00" name="Page-1">
    <mxGraphModel dx="2107" dy="760" grid="1" gridSize="14" guides="1" tooltips="1" connect="1" arrows="1" fold="1" page="1" pageScale="1" pageWidth="850" pageHeight="1100" background="none" math="0" shadow="0" extFonts="Permanent Marker^https://fonts.googleapis.com/css?family=Permanent+Marker">
      <root>
        <mxCell id="0" />
        <mxCell id="1" style="" parent="0" />
        <mxCell id="Y7ZWEB1INYLG-PyM939z-7" style="edgeStyle=orthogonalEdgeStyle;rounded=0;orthogonalLoop=1;jettySize=auto;html=1;exitX=0.5;exitY=0;exitDx=0;exitDy=0;entryX=0.5;entryY=1;entryDx=0;entryDy=0;endArrow=none;endFill=0;" parent="1" source="Y7ZWEB1INYLG-PyM939z-1" target="Y7ZWEB1INYLG-PyM939z-6" edge="1">
          <mxGeometry relative="1" as="geometry" />
        </mxCell>
        <mxCell id="Y7ZWEB1INYLG-PyM939z-9" style="edgeStyle=orthogonalEdgeStyle;rounded=0;orthogonalLoop=1;jettySize=auto;html=1;exitX=0;exitY=0;exitDx=0;exitDy=0;entryX=1;entryY=0.5;entryDx=0;entryDy=0;endArrow=none;endFill=0;" parent="1" source="Y7ZWEB1INYLG-PyM939z-1" target="Y7ZWEB1INYLG-PyM939z-4" edge="1">
          <mxGeometry relative="1" as="geometry">
            <Array as="points">
              <mxPoint x="-10" y="300" />
            </Array>
          </mxGeometry>
        </mxCell>
        <mxCell id="Y7ZWEB1INYLG-PyM939z-47" style="edgeStyle=orthogonalEdgeStyle;rounded=0;orthogonalLoop=1;jettySize=auto;html=1;exitX=1;exitY=0.5;exitDx=0;exitDy=0;endArrow=none;endFill=0;" parent="1" source="Y7ZWEB1INYLG-PyM939z-1" target="Y7ZWEB1INYLG-PyM939z-45" edge="1">
          <mxGeometry relative="1" as="geometry" />
        </mxCell>
        <mxCell id="Wz1U45sYQNW28HSaY4N3-1" style="edgeStyle=orthogonalEdgeStyle;rounded=0;orthogonalLoop=1;jettySize=auto;html=1;exitX=1;exitY=0;exitDx=0;exitDy=0;endArrow=none;endFill=0;entryX=0.5;entryY=1;entryDx=0;entryDy=0;" parent="1" source="Y7ZWEB1INYLG-PyM939z-1" edge="1" target="Wz1U45sYQNW28HSaY4N3-53">
          <mxGeometry relative="1" as="geometry">
            <mxPoint x="195" y="220" as="targetPoint" />
          </mxGeometry>
        </mxCell>
        <mxCell id="B7Drr9eoU8R_PgHaGshv-6" style="edgeStyle=orthogonalEdgeStyle;rounded=0;orthogonalLoop=1;jettySize=auto;html=1;exitX=0;exitY=0.5;exitDx=0;exitDy=0;" edge="1" parent="1" source="Y7ZWEB1INYLG-PyM939z-1">
          <mxGeometry relative="1" as="geometry">
            <mxPoint x="-140" y="420" as="targetPoint" />
          </mxGeometry>
        </mxCell>
        <mxCell id="Y7ZWEB1INYLG-PyM939z-1" value="&lt;font face=&quot;Helvetica&quot;&gt;MACHINE&lt;/font&gt;" style="rounded=0;whiteSpace=wrap;html=1;fillColor=#d80073;strokeColor=#A50040;fontColor=#ffffff;" parent="1" vertex="1">
          <mxGeometry x="-10" y="390" width="120" height="60" as="geometry" />
        </mxCell>
        <mxCell id="Y7ZWEB1INYLG-PyM939z-2" value="MAINTENACE_DATE" style="ellipse;whiteSpace=wrap;html=1;fillColor=#60a917;strokeColor=#2D7600;fontColor=#ffffff;" parent="1" vertex="1">
          <mxGeometry x="-450" y="270" width="130" height="60" as="geometry" />
        </mxCell>
        <mxCell id="Y7ZWEB1INYLG-PyM939z-4" value="TYPE" style="ellipse;whiteSpace=wrap;html=1;fillColor=#60a917;strokeColor=#2D7600;fontColor=#ffffff;" parent="1" vertex="1">
          <mxGeometry x="-130" y="270" width="130" height="60" as="geometry" />
        </mxCell>
        <mxCell id="Y7ZWEB1INYLG-PyM939z-6" value="&lt;u&gt;&lt;i&gt;&lt;b&gt;MACHINE_ID&lt;/b&gt;&lt;/i&gt;&lt;/u&gt;" style="ellipse;whiteSpace=wrap;html=1;fillColor=#1ba1e2;strokeColor=#006EAF;fontColor=#ffffff;" parent="1" vertex="1">
          <mxGeometry x="-15" y="220" width="130" height="60" as="geometry" />
        </mxCell>
        <mxCell id="Y7ZWEB1INYLG-PyM939z-11" style="edgeStyle=orthogonalEdgeStyle;rounded=0;orthogonalLoop=1;jettySize=auto;html=1;exitX=0.5;exitY=0;exitDx=0;exitDy=0;entryX=0.5;entryY=1;entryDx=0;entryDy=0;endArrow=none;endFill=0;" parent="1" source="Y7ZWEB1INYLG-PyM939z-15" target="Y7ZWEB1INYLG-PyM939z-19" edge="1">
          <mxGeometry relative="1" as="geometry" />
        </mxCell>
        <mxCell id="Y7ZWEB1INYLG-PyM939z-13" style="edgeStyle=orthogonalEdgeStyle;rounded=0;orthogonalLoop=1;jettySize=auto;html=1;exitX=0;exitY=0;exitDx=0;exitDy=0;entryX=1;entryY=0.5;entryDx=0;entryDy=0;endArrow=none;endFill=0;" parent="1" source="Y7ZWEB1INYLG-PyM939z-15" target="Y7ZWEB1INYLG-PyM939z-17" edge="1">
          <mxGeometry relative="1" as="geometry" />
        </mxCell>
        <mxCell id="Y7ZWEB1INYLG-PyM939z-21" style="edgeStyle=orthogonalEdgeStyle;rounded=0;orthogonalLoop=1;jettySize=auto;html=1;endArrow=none;endFill=0;" parent="1" source="Y7ZWEB1INYLG-PyM939z-15" target="Y7ZWEB1INYLG-PyM939z-20" edge="1">
          <mxGeometry relative="1" as="geometry" />
        </mxCell>
        <mxCell id="Y7ZWEB1INYLG-PyM939z-22" style="edgeStyle=orthogonalEdgeStyle;rounded=0;orthogonalLoop=1;jettySize=auto;html=1;exitX=0;exitY=1;exitDx=0;exitDy=0;endArrow=none;endFill=0;" parent="1" source="Y7ZWEB1INYLG-PyM939z-15" target="Y7ZWEB1INYLG-PyM939z-16" edge="1">
          <mxGeometry relative="1" as="geometry" />
        </mxCell>
        <mxCell id="Y7ZWEB1INYLG-PyM939z-15" value="&lt;font face=&quot;Helvetica&quot;&gt;CUSTOMER&lt;/font&gt;" style="rounded=0;whiteSpace=wrap;html=1;fillColor=#d80073;strokeColor=#A50040;fontColor=#ffffff;" parent="1" vertex="1">
          <mxGeometry x="1735" y="270" width="120" height="60" as="geometry" />
        </mxCell>
        <mxCell id="Y7ZWEB1INYLG-PyM939z-16" value="ADDRESS" style="ellipse;whiteSpace=wrap;html=1;fillColor=#60a917;strokeColor=#2D7600;fontColor=#ffffff;" parent="1" vertex="1">
          <mxGeometry x="1580" y="330" width="130" height="60" as="geometry" />
        </mxCell>
        <mxCell id="Y7ZWEB1INYLG-PyM939z-17" value="NAME" style="ellipse;whiteSpace=wrap;html=1;fillColor=#60a917;strokeColor=#2D7600;fontColor=#ffffff;" parent="1" vertex="1">
          <mxGeometry x="1580" y="240" width="130" height="60" as="geometry" />
        </mxCell>
        <mxCell id="Y7ZWEB1INYLG-PyM939z-19" value="&lt;u&gt;&lt;i&gt;&lt;b&gt;CUSTOMER_ID&lt;/b&gt;&lt;/i&gt;&lt;/u&gt;" style="ellipse;whiteSpace=wrap;html=1;fillColor=#1ba1e2;strokeColor=#006EAF;fontColor=#ffffff;" parent="1" vertex="1">
          <mxGeometry x="1730" y="150" width="130" height="60" as="geometry" />
        </mxCell>
        <mxCell id="Y7ZWEB1INYLG-PyM939z-20" value="GSTIN" style="ellipse;whiteSpace=wrap;html=1;fillColor=#60a917;strokeColor=#2D7600;fontColor=#ffffff;" parent="1" vertex="1">
          <mxGeometry x="1730" y="390" width="130" height="60" as="geometry" />
        </mxCell>
        <mxCell id="Y7ZWEB1INYLG-PyM939z-24" style="edgeStyle=orthogonalEdgeStyle;rounded=0;orthogonalLoop=1;jettySize=auto;html=1;exitX=0;exitY=0;exitDx=0;exitDy=0;entryX=1;entryY=0.5;entryDx=0;entryDy=0;endArrow=none;endFill=0;" parent="1" source="Y7ZWEB1INYLG-PyM939z-27" target="Y7ZWEB1INYLG-PyM939z-29" edge="1">
          <mxGeometry relative="1" as="geometry" />
        </mxCell>
        <mxCell id="Y7ZWEB1INYLG-PyM939z-25" style="edgeStyle=orthogonalEdgeStyle;rounded=0;orthogonalLoop=1;jettySize=auto;html=1;endArrow=none;endFill=0;" parent="1" source="Y7ZWEB1INYLG-PyM939z-27" target="Y7ZWEB1INYLG-PyM939z-31" edge="1">
          <mxGeometry relative="1" as="geometry">
            <Array as="points">
              <mxPoint x="1845" y="600" />
              <mxPoint x="1605" y="600" />
            </Array>
          </mxGeometry>
        </mxCell>
        <mxCell id="Y7ZWEB1INYLG-PyM939z-26" style="edgeStyle=orthogonalEdgeStyle;rounded=0;orthogonalLoop=1;jettySize=auto;html=1;exitX=0;exitY=1;exitDx=0;exitDy=0;endArrow=none;endFill=0;" parent="1" source="Y7ZWEB1INYLG-PyM939z-27" target="Y7ZWEB1INYLG-PyM939z-28" edge="1">
          <mxGeometry relative="1" as="geometry" />
        </mxCell>
        <mxCell id="Y7ZWEB1INYLG-PyM939z-33" style="edgeStyle=orthogonalEdgeStyle;rounded=0;orthogonalLoop=1;jettySize=auto;html=1;exitX=1;exitY=0.5;exitDx=0;exitDy=0;entryX=0.5;entryY=0;entryDx=0;entryDy=0;endArrow=none;endFill=0;" parent="1" source="Y7ZWEB1INYLG-PyM939z-27" target="Y7ZWEB1INYLG-PyM939z-32" edge="1">
          <mxGeometry relative="1" as="geometry" />
        </mxCell>
        <mxCell id="Y7ZWEB1INYLG-PyM939z-35" style="edgeStyle=orthogonalEdgeStyle;rounded=0;orthogonalLoop=1;jettySize=auto;html=1;exitX=1;exitY=0;exitDx=0;exitDy=0;entryX=0;entryY=1;entryDx=0;entryDy=0;endArrow=none;endFill=0;" parent="1" source="Y7ZWEB1INYLG-PyM939z-27" target="Y7ZWEB1INYLG-PyM939z-34" edge="1">
          <mxGeometry relative="1" as="geometry">
            <Array as="points">
              <mxPoint x="1905" y="660" />
              <mxPoint x="2099" y="660" />
            </Array>
          </mxGeometry>
        </mxCell>
        <mxCell id="Wz1U45sYQNW28HSaY4N3-18" style="edgeStyle=orthogonalEdgeStyle;rounded=0;orthogonalLoop=1;jettySize=auto;html=1;entryX=0.5;entryY=0;entryDx=0;entryDy=0;endArrow=none;endFill=0;" parent="1" source="Y7ZWEB1INYLG-PyM939z-27" target="Wz1U45sYQNW28HSaY4N3-17" edge="1">
          <mxGeometry relative="1" as="geometry">
            <Array as="points">
              <mxPoint x="1845" y="820" />
            </Array>
          </mxGeometry>
        </mxCell>
        <mxCell id="Wz1U45sYQNW28HSaY4N3-27" style="edgeStyle=orthogonalEdgeStyle;rounded=0;orthogonalLoop=1;jettySize=auto;html=1;exitX=1;exitY=1;exitDx=0;exitDy=0;endArrow=none;endFill=0;" parent="1" source="Y7ZWEB1INYLG-PyM939z-27" target="Wz1U45sYQNW28HSaY4N3-26" edge="1">
          <mxGeometry relative="1" as="geometry">
            <Array as="points">
              <mxPoint x="1905" y="810" />
              <mxPoint x="1990" y="810" />
            </Array>
          </mxGeometry>
        </mxCell>
        <mxCell id="Y7ZWEB1INYLG-PyM939z-27" value="&lt;font face=&quot;Helvetica&quot;&gt;ORDERS&lt;/font&gt;" style="rounded=0;whiteSpace=wrap;html=1;fillColor=#d80073;strokeColor=#A50040;fontColor=#ffffff;" parent="1" vertex="1">
          <mxGeometry x="1785" y="650" width="120" height="60" as="geometry" />
        </mxCell>
        <mxCell id="Y7ZWEB1INYLG-PyM939z-28" value="AMOUNT" style="ellipse;whiteSpace=wrap;html=1;fillColor=#60a917;strokeColor=#2D7600;fontColor=#ffffff;" parent="1" vertex="1">
          <mxGeometry x="1630" y="710" width="130" height="60" as="geometry" />
        </mxCell>
        <mxCell id="Y7ZWEB1INYLG-PyM939z-29" value="BILL_NO" style="ellipse;whiteSpace=wrap;html=1;fillColor=#60a917;strokeColor=#2D7600;fontColor=#ffffff;" parent="1" vertex="1">
          <mxGeometry x="1620" y="630" width="130" height="60" as="geometry" />
        </mxCell>
        <mxCell id="Y7ZWEB1INYLG-PyM939z-56" style="edgeStyle=orthogonalEdgeStyle;rounded=0;orthogonalLoop=1;jettySize=auto;html=1;exitX=0.5;exitY=1;exitDx=0;exitDy=0;entryX=0.75;entryY=0;entryDx=0;entryDy=0;endArrow=none;endFill=0;" parent="1" source="Y7ZWEB1INYLG-PyM939z-30" target="Y7ZWEB1INYLG-PyM939z-27" edge="1">
          <mxGeometry relative="1" as="geometry">
            <Array as="points">
              <mxPoint x="1865" y="500" />
              <mxPoint x="1865" y="650" />
            </Array>
          </mxGeometry>
        </mxCell>
        <mxCell id="Y7ZWEB1INYLG-PyM939z-30" value="&lt;u&gt;&lt;i&gt;&lt;b&gt;ORDER_ID&lt;/b&gt;&lt;/i&gt;&lt;/u&gt;" style="ellipse;whiteSpace=wrap;html=1;fillColor=#1ba1e2;strokeColor=#006EAF;fontColor=#ffffff;" parent="1" vertex="1">
          <mxGeometry x="1800" y="500" width="130" height="60" as="geometry" />
        </mxCell>
        <mxCell id="Y7ZWEB1INYLG-PyM939z-31" value="TYPES_OF_CLOTH" style="ellipse;whiteSpace=wrap;html=1;fillColor=#60a917;strokeColor=#2D7600;fontColor=#ffffff;" parent="1" vertex="1">
          <mxGeometry x="1500" y="570" width="130" height="60" as="geometry" />
        </mxCell>
        <mxCell id="Y7ZWEB1INYLG-PyM939z-32" value="IS_PAYMENT_DONE" style="ellipse;whiteSpace=wrap;html=1;fillColor=#60a917;strokeColor=#2D7600;fontColor=#ffffff;" parent="1" vertex="1">
          <mxGeometry x="2070" y="700" width="130" height="60" as="geometry" />
        </mxCell>
        <mxCell id="Y7ZWEB1INYLG-PyM939z-34" value="TIME_STAMPS" style="ellipse;whiteSpace=wrap;html=1;fillColor=#60a917;strokeColor=#2D7600;fontColor=#ffffff;" parent="1" vertex="1">
          <mxGeometry x="2080" y="590" width="130" height="60" as="geometry" />
        </mxCell>
        <mxCell id="Y7ZWEB1INYLG-PyM939z-36" style="edgeStyle=orthogonalEdgeStyle;rounded=0;orthogonalLoop=1;jettySize=auto;html=1;exitX=1;exitY=0;exitDx=0;exitDy=0;entryX=0.5;entryY=1;entryDx=0;entryDy=0;endArrow=none;endFill=0;" parent="1" source="Y7ZWEB1INYLG-PyM939z-40" target="Y7ZWEB1INYLG-PyM939z-43" edge="1">
          <mxGeometry relative="1" as="geometry" />
        </mxCell>
        <mxCell id="Y7ZWEB1INYLG-PyM939z-37" style="edgeStyle=orthogonalEdgeStyle;rounded=0;orthogonalLoop=1;jettySize=auto;html=1;exitX=0;exitY=0;exitDx=0;exitDy=0;entryX=1;entryY=0.5;entryDx=0;entryDy=0;endArrow=none;endFill=0;" parent="1" source="Y7ZWEB1INYLG-PyM939z-40" target="Y7ZWEB1INYLG-PyM939z-42" edge="1">
          <mxGeometry relative="1" as="geometry" />
        </mxCell>
        <mxCell id="Y7ZWEB1INYLG-PyM939z-39" style="edgeStyle=orthogonalEdgeStyle;rounded=0;orthogonalLoop=1;jettySize=auto;html=1;exitX=0;exitY=0.5;exitDx=0;exitDy=0;endArrow=none;endFill=0;" parent="1" source="Y7ZWEB1INYLG-PyM939z-40" target="Y7ZWEB1INYLG-PyM939z-41" edge="1">
          <mxGeometry relative="1" as="geometry">
            <Array as="points">
              <mxPoint x="687" y="440" />
              <mxPoint x="654" y="440" />
              <mxPoint x="654" y="430" />
            </Array>
          </mxGeometry>
        </mxCell>
        <mxCell id="Y7ZWEB1INYLG-PyM939z-55" style="edgeStyle=orthogonalEdgeStyle;rounded=0;orthogonalLoop=1;jettySize=auto;html=1;exitX=1;exitY=1;exitDx=0;exitDy=0;endArrow=none;endFill=0;" parent="1" source="Y7ZWEB1INYLG-PyM939z-40" target="Y7ZWEB1INYLG-PyM939z-54" edge="1">
          <mxGeometry relative="1" as="geometry" />
        </mxCell>
        <mxCell id="Y7ZWEB1INYLG-PyM939z-58" style="edgeStyle=orthogonalEdgeStyle;rounded=0;orthogonalLoop=1;jettySize=auto;html=1;exitX=0.5;exitY=0;exitDx=0;exitDy=0;entryX=0.5;entryY=1;entryDx=0;entryDy=0;endArrow=none;endFill=0;" parent="1" source="Y7ZWEB1INYLG-PyM939z-40" target="Y7ZWEB1INYLG-PyM939z-57" edge="1">
          <mxGeometry relative="1" as="geometry" />
        </mxCell>
        <mxCell id="Wz1U45sYQNW28HSaY4N3-39" style="edgeStyle=orthogonalEdgeStyle;rounded=0;orthogonalLoop=1;jettySize=auto;html=1;exitX=0.5;exitY=1;exitDx=0;exitDy=0;entryX=0.5;entryY=0;entryDx=0;entryDy=0;endArrow=none;endFill=0;" parent="1" source="Y7ZWEB1INYLG-PyM939z-40" target="Wz1U45sYQNW28HSaY4N3-38" edge="1">
          <mxGeometry relative="1" as="geometry" />
        </mxCell>
        <mxCell id="B7Drr9eoU8R_PgHaGshv-8" style="edgeStyle=orthogonalEdgeStyle;rounded=0;orthogonalLoop=1;jettySize=auto;html=1;exitX=1;exitY=0.25;exitDx=0;exitDy=0;entryX=0;entryY=1;entryDx=0;entryDy=0;endArrow=none;endFill=0;" edge="1" parent="1" source="Y7ZWEB1INYLG-PyM939z-40" target="Y7ZWEB1INYLG-PyM939z-44">
          <mxGeometry relative="1" as="geometry" />
        </mxCell>
        <mxCell id="B7Drr9eoU8R_PgHaGshv-9" style="edgeStyle=orthogonalEdgeStyle;rounded=0;orthogonalLoop=1;jettySize=auto;html=1;exitX=0;exitY=1;exitDx=0;exitDy=0;entryX=1;entryY=0.5;entryDx=0;entryDy=0;" edge="1" parent="1" source="Y7ZWEB1INYLG-PyM939z-40" target="Y7ZWEB1INYLG-PyM939z-45">
          <mxGeometry relative="1" as="geometry" />
        </mxCell>
        <mxCell id="Y7ZWEB1INYLG-PyM939z-40" value="&lt;font face=&quot;Helvetica&quot;&gt;WORKER&lt;/font&gt;" style="rounded=0;whiteSpace=wrap;html=1;fillColor=#d80073;strokeColor=#A50040;fontColor=#ffffff;" parent="1" vertex="1">
          <mxGeometry x="687.5" y="400" width="120" height="60" as="geometry" />
        </mxCell>
        <mxCell id="Y7ZWEB1INYLG-PyM939z-41" value="ADDRESS" style="ellipse;whiteSpace=wrap;html=1;fillColor=#60a917;strokeColor=#2D7600;fontColor=#ffffff;" parent="1" vertex="1">
          <mxGeometry x="490" y="395" width="130" height="60" as="geometry" />
        </mxCell>
        <mxCell id="Y7ZWEB1INYLG-PyM939z-42" value="NAME" style="ellipse;whiteSpace=wrap;html=1;fillColor=#60a917;strokeColor=#2D7600;fontColor=#ffffff;" parent="1" vertex="1">
          <mxGeometry x="530" y="300" width="130" height="60" as="geometry" />
        </mxCell>
        <mxCell id="Y7ZWEB1INYLG-PyM939z-43" value="&lt;u&gt;&lt;i&gt;&lt;b&gt;WORKER_ID&lt;/b&gt;&lt;/i&gt;&lt;/u&gt;" style="ellipse;whiteSpace=wrap;html=1;fillColor=#1ba1e2;strokeColor=#006EAF;fontColor=#ffffff;" parent="1" vertex="1">
          <mxGeometry x="807.5" y="250" width="130" height="60" as="geometry" />
        </mxCell>
        <mxCell id="Y7ZWEB1INYLG-PyM939z-44" value="AADHAR_NO" style="ellipse;whiteSpace=wrap;html=1;fillColor=#60a917;strokeColor=#2D7600;fontColor=#ffffff;" parent="1" vertex="1">
          <mxGeometry x="940" y="320" width="130" height="60" as="geometry" />
        </mxCell>
        <mxCell id="Y7ZWEB1INYLG-PyM939z-45" value="WORKS_ON" style="rhombus;whiteSpace=wrap;html=1;fillColor=#008a00;strokeColor=#005700;fontColor=#ffffff;" parent="1" vertex="1">
          <mxGeometry x="230" y="470" width="80" height="80" as="geometry" />
        </mxCell>
        <mxCell id="Y7ZWEB1INYLG-PyM939z-49" value="N" style="text;html=1;align=center;verticalAlign=middle;whiteSpace=wrap;rounded=0;" parent="1" vertex="1">
          <mxGeometry x="250" y="395" width="60" height="30" as="geometry" />
        </mxCell>
        <mxCell id="Y7ZWEB1INYLG-PyM939z-54" value="SEX" style="ellipse;whiteSpace=wrap;html=1;fillColor=#60a917;strokeColor=#2D7600;fontColor=#ffffff;" parent="1" vertex="1">
          <mxGeometry x="980" y="450" width="130" height="60" as="geometry" />
        </mxCell>
        <mxCell id="Y7ZWEB1INYLG-PyM939z-57" value="AGE" style="ellipse;whiteSpace=wrap;html=1;fillColor=#60a917;strokeColor=#2D7600;fontColor=#ffffff;" parent="1" vertex="1">
          <mxGeometry x="660" y="250" width="130" height="60" as="geometry" />
        </mxCell>
        <mxCell id="Y7ZWEB1INYLG-PyM939z-60" style="edgeStyle=orthogonalEdgeStyle;rounded=0;orthogonalLoop=1;jettySize=auto;html=1;exitX=0;exitY=0;exitDx=0;exitDy=0;entryX=1;entryY=0.5;entryDx=0;entryDy=0;endArrow=none;endFill=0;" parent="1" source="Y7ZWEB1INYLG-PyM939z-63" target="Y7ZWEB1INYLG-PyM939z-65" edge="1">
          <mxGeometry relative="1" as="geometry" />
        </mxCell>
        <mxCell id="Y7ZWEB1INYLG-PyM939z-61" style="edgeStyle=orthogonalEdgeStyle;rounded=0;orthogonalLoop=1;jettySize=auto;html=1;endArrow=none;endFill=0;" parent="1" source="Y7ZWEB1INYLG-PyM939z-63" target="Y7ZWEB1INYLG-PyM939z-67" edge="1">
          <mxGeometry relative="1" as="geometry" />
        </mxCell>
        <mxCell id="Y7ZWEB1INYLG-PyM939z-62" style="edgeStyle=orthogonalEdgeStyle;rounded=0;orthogonalLoop=1;jettySize=auto;html=1;exitX=0;exitY=0.5;exitDx=0;exitDy=0;endArrow=none;endFill=0;" parent="1" source="Y7ZWEB1INYLG-PyM939z-63" target="Y7ZWEB1INYLG-PyM939z-64" edge="1">
          <mxGeometry relative="1" as="geometry" />
        </mxCell>
        <mxCell id="Wz1U45sYQNW28HSaY4N3-54" style="edgeStyle=orthogonalEdgeStyle;rounded=0;orthogonalLoop=1;jettySize=auto;html=1;exitX=0.75;exitY=0;exitDx=0;exitDy=0;entryX=0;entryY=0.5;entryDx=0;entryDy=0;endArrow=none;endFill=0;" parent="1" source="Y7ZWEB1INYLG-PyM939z-63" target="Wz1U45sYQNW28HSaY4N3-55" edge="1">
          <mxGeometry relative="1" as="geometry">
            <mxPoint x="135" y="655" as="targetPoint" />
            <Array as="points">
              <mxPoint x="80" y="665" />
              <mxPoint x="80" y="630" />
              <mxPoint x="70" y="630" />
            </Array>
          </mxGeometry>
        </mxCell>
        <mxCell id="Y7ZWEB1INYLG-PyM939z-63" value="MATERIAL" style="rounded=0;whiteSpace=wrap;html=1;fillColor=#d80073;strokeColor=#A50040;fontColor=#ffffff;" parent="1" vertex="1">
          <mxGeometry x="-20" y="665" width="120" height="60" as="geometry" />
        </mxCell>
        <mxCell id="Y7ZWEB1INYLG-PyM939z-64" value="RATE" style="ellipse;whiteSpace=wrap;html=1;fillColor=#60a917;strokeColor=#2D7600;fontColor=#ffffff;" parent="1" vertex="1">
          <mxGeometry x="-200" y="665" width="130" height="60" as="geometry" />
        </mxCell>
        <mxCell id="Y7ZWEB1INYLG-PyM939z-65" value="&lt;u&gt;&lt;b&gt;&lt;i&gt;TYPE(MA)&lt;/i&gt;&lt;/b&gt;&lt;/u&gt;" style="ellipse;whiteSpace=wrap;html=1;fillColor=#1ba1e2;strokeColor=#006EAF;fontColor=#ffffff;" parent="1" vertex="1">
          <mxGeometry x="-180" y="570" width="130" height="60" as="geometry" />
        </mxCell>
        <mxCell id="Y7ZWEB1INYLG-PyM939z-67" value="QUANTITY" style="ellipse;whiteSpace=wrap;html=1;fillColor=#60a917;strokeColor=#2D7600;fontColor=#ffffff;" parent="1" vertex="1">
          <mxGeometry x="-25" y="760" width="130" height="60" as="geometry" />
        </mxCell>
        <mxCell id="Y7ZWEB1INYLG-PyM939z-70" style="edgeStyle=orthogonalEdgeStyle;rounded=0;orthogonalLoop=1;jettySize=auto;html=1;endArrow=none;endFill=0;" parent="1" source="Y7ZWEB1INYLG-PyM939z-72" target="Y7ZWEB1INYLG-PyM939z-76" edge="1">
          <mxGeometry relative="1" as="geometry" />
        </mxCell>
        <mxCell id="Y7ZWEB1INYLG-PyM939z-71" style="edgeStyle=orthogonalEdgeStyle;rounded=0;orthogonalLoop=1;jettySize=auto;html=1;exitX=0;exitY=1;exitDx=0;exitDy=0;endArrow=none;endFill=0;" parent="1" source="Y7ZWEB1INYLG-PyM939z-72" target="Y7ZWEB1INYLG-PyM939z-73" edge="1">
          <mxGeometry relative="1" as="geometry">
            <Array as="points">
              <mxPoint x="1170" y="900" />
            </Array>
          </mxGeometry>
        </mxCell>
        <mxCell id="Wz1U45sYQNW28HSaY4N3-21" style="edgeStyle=orthogonalEdgeStyle;rounded=0;orthogonalLoop=1;jettySize=auto;html=1;exitX=1;exitY=1;exitDx=0;exitDy=0;entryX=0.5;entryY=1;entryDx=0;entryDy=0;endArrow=none;endFill=0;" parent="1" source="Y7ZWEB1INYLG-PyM939z-72" target="Wz1U45sYQNW28HSaY4N3-19" edge="1">
          <mxGeometry relative="1" as="geometry">
            <Array as="points">
              <mxPoint x="1290" y="880" />
            </Array>
          </mxGeometry>
        </mxCell>
        <mxCell id="Y7ZWEB1INYLG-PyM939z-72" value="&lt;font face=&quot;Helvetica&quot;&gt;INVENTORY&lt;/font&gt;" style="rounded=0;whiteSpace=wrap;html=1;fillColor=#d80073;strokeColor=#A50040;fontColor=#ffffff;" parent="1" vertex="1">
          <mxGeometry x="1170" y="780" width="120" height="60" as="geometry" />
        </mxCell>
        <mxCell id="Y7ZWEB1INYLG-PyM939z-73" value="RATE" style="ellipse;whiteSpace=wrap;html=1;fillColor=#60a917;strokeColor=#2D7600;fontColor=#ffffff;" parent="1" vertex="1">
          <mxGeometry x="970" y="870" width="130" height="60" as="geometry" />
        </mxCell>
        <mxCell id="B7Drr9eoU8R_PgHaGshv-11" style="edgeStyle=orthogonalEdgeStyle;rounded=0;orthogonalLoop=1;jettySize=auto;html=1;exitX=0;exitY=0.5;exitDx=0;exitDy=0;entryX=0.5;entryY=1;entryDx=0;entryDy=0;" edge="1" parent="1" source="Y7ZWEB1INYLG-PyM939z-74" target="Y7ZWEB1INYLG-PyM939z-72">
          <mxGeometry relative="1" as="geometry" />
        </mxCell>
        <mxCell id="Y7ZWEB1INYLG-PyM939z-74" value="&lt;b&gt;&lt;u&gt;TYPE(MA)&lt;/u&gt;&lt;/b&gt;" style="ellipse;whiteSpace=wrap;html=1;fillColor=#1ba1e2;strokeColor=#006EAF;fontColor=#ffffff;" parent="1" vertex="1">
          <mxGeometry x="1270" y="910" width="130" height="60" as="geometry" />
        </mxCell>
        <mxCell id="Y7ZWEB1INYLG-PyM939z-76" value="QUANTITY" style="ellipse;whiteSpace=wrap;html=1;fillColor=#60a917;strokeColor=#2D7600;fontColor=#ffffff;" parent="1" vertex="1">
          <mxGeometry x="1165" y="660" width="130" height="60" as="geometry" />
        </mxCell>
        <mxCell id="B7Drr9eoU8R_PgHaGshv-1" style="edgeStyle=orthogonalEdgeStyle;rounded=0;orthogonalLoop=1;jettySize=auto;html=1;exitX=1;exitY=1;exitDx=0;exitDy=0;entryX=0;entryY=0;entryDx=0;entryDy=0;endArrow=none;endFill=0;" edge="1" parent="1" source="Y7ZWEB1INYLG-PyM939z-77" target="Y7ZWEB1INYLG-PyM939z-81">
          <mxGeometry relative="1" as="geometry" />
        </mxCell>
        <mxCell id="Y7ZWEB1INYLG-PyM939z-77" value="MAINTENACE_COST" style="ellipse;whiteSpace=wrap;html=1;fillColor=#60a917;strokeColor=#2D7600;fontColor=#ffffff;" parent="1" vertex="1">
          <mxGeometry x="-610" y="290" width="130" height="60" as="geometry" />
        </mxCell>
        <mxCell id="Y7ZWEB1INYLG-PyM939z-86" value="" style="group" parent="1" vertex="1" connectable="0">
          <mxGeometry x="-217.5" y="380" width="105" height="80" as="geometry" />
        </mxCell>
        <mxCell id="Y7ZWEB1INYLG-PyM939z-83" value="" style="rhombus;whiteSpace=wrap;html=1;" parent="Y7ZWEB1INYLG-PyM939z-86" vertex="1">
          <mxGeometry width="80" height="80" as="geometry" />
        </mxCell>
        <mxCell id="Y7ZWEB1INYLG-PyM939z-84" value="MM" style="rhombus;whiteSpace=wrap;html=1;fillColor=#008a00;strokeColor=#005700;fontColor=#ffffff;" parent="Y7ZWEB1INYLG-PyM939z-86" vertex="1">
          <mxGeometry x="10" y="10" width="60" height="60" as="geometry" />
        </mxCell>
        <mxCell id="Y7ZWEB1INYLG-PyM939z-90" style="edgeStyle=orthogonalEdgeStyle;rounded=0;orthogonalLoop=1;jettySize=auto;html=1;exitX=0.5;exitY=0;exitDx=0;exitDy=0;endArrow=none;endFill=0;entryX=0.5;entryY=1;entryDx=0;entryDy=0;" parent="1" source="Y7ZWEB1INYLG-PyM939z-81" target="Y7ZWEB1INYLG-PyM939z-2" edge="1">
          <mxGeometry relative="1" as="geometry">
            <mxPoint x="-385" y="350" as="targetPoint" />
            <Array as="points">
              <mxPoint x="-385" y="335" />
              <mxPoint x="-385" y="335" />
            </Array>
          </mxGeometry>
        </mxCell>
        <mxCell id="Wz1U45sYQNW28HSaY4N3-4" style="edgeStyle=orthogonalEdgeStyle;rounded=0;orthogonalLoop=1;jettySize=auto;html=1;entryX=1;entryY=0.25;entryDx=0;entryDy=0;endArrow=none;endFill=0;" parent="1" source="Wz1U45sYQNW28HSaY4N3-3" target="Y7ZWEB1INYLG-PyM939z-1" edge="1">
          <mxGeometry relative="1" as="geometry" />
        </mxCell>
        <mxCell id="Wz1U45sYQNW28HSaY4N3-3" value="WORKER_ID(&lt;b&gt;FK&lt;/b&gt;)" style="ellipse;whiteSpace=wrap;html=1;fillColor=#60a917;strokeColor=#2D7600;fontColor=#ffffff;" parent="1" vertex="1">
          <mxGeometry x="200" y="330" width="130" height="60" as="geometry" />
        </mxCell>
        <mxCell id="Wz1U45sYQNW28HSaY4N3-8" value="&lt;span style=&quot;border-bottom: 1px dotted&quot;&gt;MACHINE_IDENTIFIER&lt;/span&gt;" style="ellipse;whiteSpace=wrap;html=1;align=center;fillColor=#6a00ff;strokeColor=#3700CC;fontColor=#ffffff;" parent="1" vertex="1">
          <mxGeometry x="-300" y="290" width="130" height="60" as="geometry" />
        </mxCell>
        <mxCell id="Wz1U45sYQNW28HSaY4N3-17" value="INVENTORY_ID(&lt;b style=&quot;border-color: var(--border-color);&quot;&gt;FK&lt;/b&gt;)" style="ellipse;whiteSpace=wrap;html=1;fillColor=#60a917;strokeColor=#2D7600;fontColor=#ffffff;" parent="1" vertex="1">
          <mxGeometry x="1760" y="854" width="130" height="60" as="geometry" />
        </mxCell>
        <mxCell id="Wz1U45sYQNW28HSaY4N3-19" value="SOLD_TO" style="rhombus;whiteSpace=wrap;html=1;fillColor=#008a00;strokeColor=#005700;fontColor=#ffffff;" parent="1" vertex="1">
          <mxGeometry x="1580" y="800" width="80" height="80" as="geometry" />
        </mxCell>
        <mxCell id="Wz1U45sYQNW28HSaY4N3-20" style="edgeStyle=orthogonalEdgeStyle;rounded=0;orthogonalLoop=1;jettySize=auto;html=1;entryX=0.125;entryY=1.05;entryDx=0;entryDy=0;entryPerimeter=0;endArrow=none;endFill=0;exitX=1;exitY=0.5;exitDx=0;exitDy=0;" parent="1" source="Wz1U45sYQNW28HSaY4N3-19" target="Y7ZWEB1INYLG-PyM939z-27" edge="1">
          <mxGeometry relative="1" as="geometry">
            <Array as="points">
              <mxPoint x="1800" y="840" />
            </Array>
          </mxGeometry>
        </mxCell>
        <mxCell id="Wz1U45sYQNW28HSaY4N3-24" style="edgeStyle=orthogonalEdgeStyle;rounded=0;orthogonalLoop=1;jettySize=auto;html=1;exitX=0;exitY=0.5;exitDx=0;exitDy=0;entryX=1;entryY=0.5;entryDx=0;entryDy=0;endArrow=none;endFill=0;" parent="1" source="Wz1U45sYQNW28HSaY4N3-22" target="Y7ZWEB1INYLG-PyM939z-15" edge="1">
          <mxGeometry relative="1" as="geometry" />
        </mxCell>
        <mxCell id="Wz1U45sYQNW28HSaY4N3-22" value="OF" style="rhombus;whiteSpace=wrap;html=1;fillColor=#008a00;strokeColor=#005700;fontColor=#ffffff;" parent="1" vertex="1">
          <mxGeometry x="1910" y="260" width="80" height="80" as="geometry" />
        </mxCell>
        <mxCell id="Wz1U45sYQNW28HSaY4N3-23" style="edgeStyle=orthogonalEdgeStyle;rounded=0;orthogonalLoop=1;jettySize=auto;html=1;exitX=0.5;exitY=1;exitDx=0;exitDy=0;entryX=0.858;entryY=-0.017;entryDx=0;entryDy=0;entryPerimeter=0;endArrow=none;endFill=0;" parent="1" source="Wz1U45sYQNW28HSaY4N3-22" target="Y7ZWEB1INYLG-PyM939z-27" edge="1">
          <mxGeometry relative="1" as="geometry">
            <Array as="points">
              <mxPoint x="1950" y="590" />
              <mxPoint x="1888" y="590" />
            </Array>
          </mxGeometry>
        </mxCell>
        <mxCell id="Wz1U45sYQNW28HSaY4N3-26" value="CUTOMER_ID(&lt;b style=&quot;border-color: var(--border-color);&quot;&gt;FK&lt;/b&gt;)" style="ellipse;whiteSpace=wrap;html=1;fillColor=#60a917;strokeColor=#2D7600;fontColor=#ffffff;" parent="1" vertex="1">
          <mxGeometry x="2070" y="780" width="130" height="60" as="geometry" />
        </mxCell>
        <mxCell id="Wz1U45sYQNW28HSaY4N3-42" style="edgeStyle=orthogonalEdgeStyle;rounded=0;orthogonalLoop=1;jettySize=auto;html=1;endArrow=none;endFill=0;" parent="1" source="Wz1U45sYQNW28HSaY4N3-30" target="Wz1U45sYQNW28HSaY4N3-33" edge="1">
          <mxGeometry relative="1" as="geometry" />
        </mxCell>
        <mxCell id="Wz1U45sYQNW28HSaY4N3-30" value="PRODUCED" style="shape=ext;margin=3;double=1;whiteSpace=wrap;html=1;align=center;fillColor=#d80073;strokeColor=#A50040;fontColor=#ffffff;" parent="1" vertex="1">
          <mxGeometry x="685" y="590" width="125" height="60" as="geometry" />
        </mxCell>
        <mxCell id="Wz1U45sYQNW28HSaY4N3-32" value="AMOUNT" style="ellipse;whiteSpace=wrap;html=1;fillColor=#60a917;strokeColor=#2D7600;fontColor=#ffffff;" parent="1" vertex="1">
          <mxGeometry x="530" y="760" width="130" height="60" as="geometry" />
        </mxCell>
        <mxCell id="Wz1U45sYQNW28HSaY4N3-33" value="TYPE" style="ellipse;whiteSpace=wrap;html=1;fillColor=#60a917;strokeColor=#2D7600;fontColor=#ffffff;" parent="1" vertex="1">
          <mxGeometry x="682.5" y="760" width="130" height="60" as="geometry" />
        </mxCell>
        <mxCell id="Wz1U45sYQNW28HSaY4N3-34" value="WORKER_RATE" style="ellipse;whiteSpace=wrap;html=1;fillColor=#60a917;strokeColor=#2D7600;fontColor=#ffffff;" parent="1" vertex="1">
          <mxGeometry x="850" y="750" width="130" height="60" as="geometry" />
        </mxCell>
        <mxCell id="Wz1U45sYQNW28HSaY4N3-36" value="" style="group" parent="1" vertex="1" connectable="0">
          <mxGeometry x="705" y="490" width="80" height="80" as="geometry" />
        </mxCell>
        <mxCell id="Wz1U45sYQNW28HSaY4N3-37" value="" style="rhombus;whiteSpace=wrap;html=1;" parent="Wz1U45sYQNW28HSaY4N3-36" vertex="1">
          <mxGeometry width="80" height="80" as="geometry" />
        </mxCell>
        <mxCell id="Wz1U45sYQNW28HSaY4N3-38" value="PRODUCES" style="rhombus;whiteSpace=wrap;html=1;fillColor=#008a00;strokeColor=#005700;fontColor=#ffffff;" parent="Wz1U45sYQNW28HSaY4N3-36" vertex="1">
          <mxGeometry x="10" y="10" width="60" height="60" as="geometry" />
        </mxCell>
        <mxCell id="Wz1U45sYQNW28HSaY4N3-40" style="edgeStyle=orthogonalEdgeStyle;rounded=0;orthogonalLoop=1;jettySize=auto;html=1;exitX=0.5;exitY=1;exitDx=0;exitDy=0;endArrow=none;endFill=0;" parent="1" source="Wz1U45sYQNW28HSaY4N3-37" target="Wz1U45sYQNW28HSaY4N3-30" edge="1">
          <mxGeometry relative="1" as="geometry" />
        </mxCell>
        <mxCell id="Wz1U45sYQNW28HSaY4N3-41" style="edgeStyle=orthogonalEdgeStyle;rounded=0;orthogonalLoop=1;jettySize=auto;html=1;exitX=1;exitY=1;exitDx=0;exitDy=0;entryX=0.438;entryY=-0.05;entryDx=0;entryDy=0;entryPerimeter=0;endArrow=none;endFill=0;" parent="1" source="Wz1U45sYQNW28HSaY4N3-30" target="Wz1U45sYQNW28HSaY4N3-34" edge="1">
          <mxGeometry relative="1" as="geometry" />
        </mxCell>
        <mxCell id="Wz1U45sYQNW28HSaY4N3-43" style="edgeStyle=orthogonalEdgeStyle;rounded=0;orthogonalLoop=1;jettySize=auto;html=1;exitX=0;exitY=1;exitDx=0;exitDy=0;entryX=0.608;entryY=0.033;entryDx=0;entryDy=0;entryPerimeter=0;endArrow=none;endFill=0;" parent="1" source="Wz1U45sYQNW28HSaY4N3-30" target="Wz1U45sYQNW28HSaY4N3-32" edge="1">
          <mxGeometry relative="1" as="geometry" />
        </mxCell>
        <mxCell id="Wz1U45sYQNW28HSaY4N3-45" style="edgeStyle=orthogonalEdgeStyle;rounded=0;orthogonalLoop=1;jettySize=auto;html=1;entryX=1;entryY=0.5;entryDx=0;entryDy=0;endArrow=none;endFill=0;" parent="1" source="Wz1U45sYQNW28HSaY4N3-44" target="Wz1U45sYQNW28HSaY4N3-30" edge="1">
          <mxGeometry relative="1" as="geometry" />
        </mxCell>
        <mxCell id="Wz1U45sYQNW28HSaY4N3-44" value="&lt;span style=&quot;border-bottom: 1px dotted&quot;&gt;_IDENTIFIER&lt;/span&gt;" style="ellipse;whiteSpace=wrap;html=1;align=center;fillColor=#1ba1e2;strokeColor=#006EAF;fontColor=#ffffff;" parent="1" vertex="1">
          <mxGeometry x="870" y="590" width="130" height="60" as="geometry" />
        </mxCell>
        <mxCell id="Wz1U45sYQNW28HSaY4N3-47" style="edgeStyle=orthogonalEdgeStyle;rounded=0;orthogonalLoop=1;jettySize=auto;html=1;exitX=1;exitY=0;exitDx=0;exitDy=0;entryX=0;entryY=0.5;entryDx=0;entryDy=0;endArrow=none;endFill=0;" parent="1" source="Wz1U45sYQNW28HSaY4N3-46" target="Wz1U45sYQNW28HSaY4N3-30" edge="1">
          <mxGeometry relative="1" as="geometry">
            <Array as="points">
              <mxPoint x="491" y="650" />
              <mxPoint x="598" y="650" />
              <mxPoint x="598" y="620" />
            </Array>
          </mxGeometry>
        </mxCell>
        <mxCell id="Wz1U45sYQNW28HSaY4N3-46" value="DATE" style="ellipse;whiteSpace=wrap;html=1;fillColor=#60a917;strokeColor=#2D7600;fontColor=#ffffff;" parent="1" vertex="1">
          <mxGeometry x="380" y="760" width="130" height="60" as="geometry" />
        </mxCell>
        <mxCell id="Wz1U45sYQNW28HSaY4N3-53" value="CAPACITY(MONTH)" style="ellipse;whiteSpace=wrap;html=1;fillColor=#60a917;strokeColor=#2D7600;fontColor=#ffffff;" parent="1" vertex="1">
          <mxGeometry x="130" y="230" width="130" height="60" as="geometry" />
        </mxCell>
        <mxCell id="Wz1U45sYQNW28HSaY4N3-55" value="DATE" style="ellipse;whiteSpace=wrap;html=1;fillColor=#60a917;strokeColor=#2D7600;fontColor=#ffffff;" parent="1" vertex="1">
          <mxGeometry x="70" y="570" width="130" height="60" as="geometry" />
        </mxCell>
        <mxCell id="B7Drr9eoU8R_PgHaGshv-3" style="edgeStyle=orthogonalEdgeStyle;rounded=0;orthogonalLoop=1;jettySize=auto;html=1;exitX=0.5;exitY=1;exitDx=0;exitDy=0;entryX=0.947;entryY=-0.035;entryDx=0;entryDy=0;entryPerimeter=0;endArrow=none;endFill=0;" edge="1" parent="1" source="Wz1U45sYQNW28HSaY4N3-8" target="Y7ZWEB1INYLG-PyM939z-81">
          <mxGeometry relative="1" as="geometry" />
        </mxCell>
        <mxCell id="B7Drr9eoU8R_PgHaGshv-5" style="edgeStyle=orthogonalEdgeStyle;rounded=0;orthogonalLoop=1;jettySize=auto;html=1;exitX=1;exitY=0.5;exitDx=0;exitDy=0;" edge="1" parent="1" source="Y7ZWEB1INYLG-PyM939z-81">
          <mxGeometry relative="1" as="geometry">
            <mxPoint x="-210" y="420" as="targetPoint" />
          </mxGeometry>
        </mxCell>
        <mxCell id="Y7ZWEB1INYLG-PyM939z-81" value="MAINTENANCE" style="shape=ext;margin=3;double=1;whiteSpace=wrap;html=1;align=center;fillColor=#d80073;strokeColor=#A50040;fontColor=#ffffff;" parent="1" vertex="1">
          <mxGeometry x="-450" y="390" width="130" height="60" as="geometry" />
        </mxCell>
        <mxCell id="B7Drr9eoU8R_PgHaGshv-10" value="1" style="text;html=1;align=center;verticalAlign=middle;whiteSpace=wrap;rounded=0;" vertex="1" parent="1">
          <mxGeometry x="310" y="470" width="60" height="30" as="geometry" />
        </mxCell>
        <mxCell id="B7Drr9eoU8R_PgHaGshv-13" style="edgeStyle=orthogonalEdgeStyle;rounded=0;orthogonalLoop=1;jettySize=auto;html=1;exitX=0;exitY=1;exitDx=0;exitDy=0;entryX=1;entryY=0;entryDx=0;entryDy=0;" edge="1" parent="1" source="B7Drr9eoU8R_PgHaGshv-12" target="Y7ZWEB1INYLG-PyM939z-72">
          <mxGeometry relative="1" as="geometry" />
        </mxCell>
        <mxCell id="B7Drr9eoU8R_PgHaGshv-12" value="AVAILABLE" style="ellipse;whiteSpace=wrap;html=1;fillColor=#60a917;strokeColor=#2D7600;fontColor=#ffffff;" vertex="1" parent="1">
          <mxGeometry x="1320" y="670" width="130" height="60" as="geometry" />
        </mxCell>
      </root>
    </mxGraphModel>
  </diagram>
</mxfile>
